<?xml version="1.0" encoding="UTF-8"?>
<svg id="Livello_2" data-name="Livello 2" xmlns="http://www.w3.org/2000/svg" viewBox="0 0 383.29 383.47">
  <defs>
    <style>
      .cls-1 {
        fill: #fff;
        stroke-width: 0px;
      }
    </style>
  </defs>
  <g id="Livello_1-2" data-name="Livello 1">
    <path class="cls-1" d="M206.62,383.47h-29.94c-.81-.24-1.6-.56-2.43-.72-11.6-2.12-23.47-3.3-34.78-6.48C41.96,348.85-17.11,250.04,4.42,150.98,25.12,55.74,114.59-9.13,211.42,1.05c33.07,3.48,63.43,14.57,90.5,33.99,42.53,30.52,68.85,71.52,78.46,123.08,1.16,6.2,1.95,12.47,2.9,18.7v29.95c-.56,4.03-1.07,8.07-1.68,12.09-5.13,34.2-18.05,65.08-39.75,92.07-30.12,37.47-68.81,60.85-116.18,69.58-6.32,1.17-12.71,1.98-19.07,2.96ZM274.63,223.84c-8.89-2.75-14.22-3.08-21.91-.56-12.67,4.15-23.22,11.13-28.26,24.14-4.3,11.09,1.72,20.34,13.41,22.44,18.5,3.33,49.31-16.29,44.37-38.17,0-51.28,0-102.55,0-153.83,0-6.7-1.49-7.79-7.82-5.71-38.72,12.72-77.43,25.45-116.15,38.18-5.23,1.72-5.46,2.06-5.46,7.74,0,48.03,0,96.07,0,144.1,0,1.4,0,2.81,0,4.58-7.04-3.3-13.77-3.32-20.34-1.5-13.4,3.72-24.44,10.84-29.96,24.22-4.84,11.73,2,22.27,14.63,22.92,15.98.82,28.4-6.09,38.05-18.4,3.64-4.64,5.16-9.98,5.13-16.01-.15-30.94-.03-61.88-.14-92.82-.01-2.76.93-3.82,3.42-4.63,32.5-10.61,64.96-21.33,97.44-32,4.44-1.46,8.91-2.82,13.59-4.3v79.61Z"/>
  </g>
</svg>