<?xml version="1.0" encoding="UTF-8"?>
<svg id="Livello_2" data-name="Livello 2" xmlns="http://www.w3.org/2000/svg" viewBox="0 0 383.15 336.94">
  <defs>
    <style>
      .cls-1 {
        fill: #fff;
        stroke-width: 0px;
      }
    </style>
  </defs>
  <g id="Livello_1-2" data-name="Livello 1">
    <path class="cls-1" d="M0,8.34C2.73,2.07,7.49-.12,14.28,0c16.83.32,33.68.1,50.52.11,7.68,0,10.91,2.49,13.1,10.06,3.31,11.46,6.61,22.93,10.05,34.85,1.48,0,3.06,0,4.65,0,92.44,0,184.87.1,277.31-.17,8.44-.02,15.55,6.17,12.55,16.49-14.82,51.09-29.36,102.27-44.01,153.41-2.14,7.48-5.43,9.91-13.22,9.91-63.12,0-126.24.03-189.36-.08-3.44,0-4.98,1.14-6.74,4.11-5.22,8.79-.03,18.62,11.65,18.57,61.87-.28,123.75-.14,185.62-.12,9.06,0,14.7,8.4,10.82,16.14-2.15,4.29-5.76,6.33-10.6,6.31-12.59-.04-25.18-.01-37.86.22,8.77,2.25,15.96,6.79,21.12,14.22,5.21,7.51,7.22,15.88,5.52,24.85-3.3,17.42-17.05,28.37-34.82,28.04-15.58-.29-29.51-12.79-31.83-29-1.9-13.32,3.98-31.6,27.34-38.2h-100.27c8.67,2.33,15.85,6.86,21.03,14.29,5.16,7.4,7.18,15.67,5.62,24.49-3.11,17.59-17.02,28.75-34.9,28.42-15.59-.29-29.52-12.77-31.84-28.98-1.95-13.61,4.29-31.76,26.78-38.37-7.92,0-15.84,0-23.76,0-25.86-.03-42.22-25.75-30.63-48.81,3.08-6.14,3.38-11.3,1.48-17.84-17.07-58.85-33.78-117.8-50.53-176.74-.74-2.62-1.75-3.75-4.76-3.71-13.34.2-26.7-.16-40.04.19-6.8.18-11.54-2.08-14.28-8.33v-5.99ZM356.96,67.73H94.4c12.84,44.95,25.6,89.61,38.38,134.32h185.81c12.79-44.76,25.55-89.41,38.38-134.32ZM180.37,303.11c-.12-5.96-5.58-11.24-11.45-11.05-5.83.18-10.94,5.39-10.96,11.17-.02,5.92,5.36,11.29,11.26,11.24,5.95-.05,11.26-5.46,11.15-11.36ZM293.4,303.35c.07-5.91-5.28-11.3-11.21-11.29-5.78,0-11,5.11-11.2,10.93-.2,5.86,5.07,11.35,11.02,11.48,5.9.13,11.32-5.16,11.38-11.12Z"/>
  </g>
</svg>