<?xml version="1.0" encoding="UTF-8"?>
<svg id="Livello_2" data-name="Livello 2" xmlns="http://www.w3.org/2000/svg" viewBox="0 0 144.05 263.77">
  <defs>
    <style>
      .cls-1 {
        fill: #000;
        stroke-width: 0px;
      }
    </style>
  </defs>
  <g id="Livello_1-2" data-name="Livello 1">
    <path class="cls-1" d="M115.71,131.91c-1.93-1.5-3.12-2.24-4.08-3.2C76.05,93.17,40.52,57.6,4.94,22.07,2.11,19.24-.04,16.25.06,12,.18,6.98,2.55,3.38,6.91,1.28,11.31-.84,15.68-.31,19.54,2.75c1.65,1.31,3.08,2.91,4.58,4.41,38.03,38.02,76.05,76.05,114.07,114.08,7.8,7.8,7.81,13.59.01,21.39-38.73,38.73-77.48,77.44-116.16,116.22-4.04,4.05-8.45,6.17-14.09,4.16-7.96-2.85-10.51-12.56-5.08-19.02.88-1.05,1.89-1.99,2.86-2.96,35.28-35.29,70.57-70.59,105.87-105.86.96-.96,2.14-1.71,4.09-3.24Z"/>
  </g>
</svg>