<?xml version="1.0" encoding="UTF-8"?>
<svg id="Livello_2" data-name="Livello 2" xmlns="http://www.w3.org/2000/svg" viewBox="0 0 383.43 185.81">
  <defs>
    <style>
      .cls-1 {
        fill: #000;
        stroke-width: 0px;
      }
    </style>
  </defs>
  <g id="Livello_1-2" data-name="Livello 1">
    <path class="cls-1" d="M0,89.17c.22-.28.53-.53.66-.85,3.17-7.45,7.51-10.37,15.52-10.37,103.41,0,206.82,0,310.22,0h5.38c-1.39-1.45-2.25-2.4-3.15-3.29-16.18-16.1-32.41-32.16-48.53-48.31-8.83-8.85-5.53-22.68,6.13-25.79,5.94-1.59,10.97.33,15.29,4.64,14.47,14.46,29.01,28.85,43.51,43.28,11.05,11,22.11,21.99,33.12,33.03,7.02,7.03,7.06,15.78.01,22.8-25.52,25.46-51.1,50.86-76.64,76.31-4.53,4.51-9.77,6.39-15.98,4.42-6.04-1.92-9.49-6.24-10.39-12.45-.78-5.36,1.42-9.65,5.17-13.38,16.04-15.89,32.02-31.84,48.05-47.73.95-.94,2.2-1.6,3.3-2.39-.21-.4-.42-.8-.63-1.2-1.42,0-2.84,0-4.26,0-102.66,0-205.32-.07-307.98.12C9.74,108.02,3.42,105.18,0,96.66,0,94.16,0,91.67,0,89.17Z"/>
  </g>
</svg>