<?xml version="1.0" encoding="UTF-8"?>
<svg id="Livello_2" data-name="Livello 2" xmlns="http://www.w3.org/2000/svg" xmlns:xlink="http://www.w3.org/1999/xlink" viewBox="0 0 51.3 45.12">
  <defs>
    <style>
      .cls-1 {
        fill: url(#Sfumatura_senza_nome_84);
        stroke-width: 0px;
      }
    </style>
    <linearGradient id="Sfumatura_senza_nome_84" data-name="Sfumatura senza nome 84" x1="0" y1="22.56" x2="51.3" y2="22.56" gradientUnits="userSpaceOnUse">
      <stop offset=".2" stop-color="#8c8c8c"/>
      <stop offset=".26" stop-color="#868686"/>
      <stop offset=".34" stop-color="#787877"/>
      <stop offset=".43" stop-color="#5f5f5f"/>
      <stop offset=".52" stop-color="#3d3d3c"/>
      <stop offset=".56" stop-color="#2b2b2a"/>
      <stop offset="1" stop-color="#000"/>
    </linearGradient>
  </defs>
  <g id="Livello_1-2" data-name="Livello 1">
    <path class="cls-1" d="M16.8,21.66c0,6.32.62,11.57,1.86,15.75,1.24,4.18,3.4,6.27,6.48,6.27,1.52,0,2.68-.3,3.48-.9.8-.6,1.3-1.27,1.5-2.01.2-.74.32-1.61.36-2.61.04-1,.06-2.24.06-3.72v-2.34c0-1.72-.06-2.88-.18-3.48-.12-1.32-.39-2.22-.81-2.7s-1.07-.78-1.95-.9c-.88-.12-1.68-.19-2.4-.21-.72-.02-1.38-.05-1.98-.09v-.96h28.08v.96l-2.76.18c-1.24.12-2.07.41-2.49.87-.42.46-.69,1.37-.81,2.73l-.12,2.82v7.86l.12,5.4h-.9c-.52-1.16-1.43-2.22-2.73-3.18-1.3-.96-2.73-1.44-4.29-1.44-1.4,0-3.4.86-6,2.58-2.6,1.72-6.04,2.58-10.32,2.58-5.92,0-10.9-2.14-14.94-6.42C2.02,34.42,0,29.04,0,22.56,0,15.76,2.22,10.3,6.66,6.18,11.1,2.06,16.76,0,23.64,0c3.76,0,7.32.84,10.68,2.52,3.36,1.68,5.24,2.56,5.64,2.64,1.16,0,1.94-.43,2.34-1.29.4-.86.78-2.09,1.14-3.69h1.2v19.38h-1.02c-1.2-4.96-3.19-9.16-5.97-12.6-2.78-3.44-6.33-5.16-10.65-5.16-3.44,0-6,1.99-7.68,5.97-1.68,3.98-2.52,8.61-2.52,13.89Z"/>
  </g>
</svg>