<svg width="17" height="17" viewBox="0 0 17 17" fill="none" xmlns="http://www.w3.org/2000/svg">
<path fill-rule="evenodd" clip-rule="evenodd" d="M4.6907 4.41961H3.31332C2.92335 4.41961 2.58924 4.70837 2.53452 5.10159L1.30525 13.9348C1.23849 14.4145 1.60963 14.8366 2.08405 14.8366H9.865V16.1323H2.08405C0.815528 16.1323 -0.153955 15.0086 0.0203021 13.7565L1.24957 4.9232C1.39283 3.89377 2.27152 3.12386 3.31332 3.12386H4.6907V3.09267C4.6907 1.41101 6.00533 0 7.68471 0C9.36409 0 10.6787 1.411 10.6787 3.09267V3.12386H12.0563C13.0981 3.12386 13.9767 3.89376 14.1201 4.9232L14.1217 4.93506L14.6605 9.41316L13.3725 9.56786L12.8344 5.09652C12.7775 4.70589 12.4446 4.41961 12.0563 4.41961H10.6787V6.7617H9.38143V4.41961H5.988V6.7617H4.6907V4.41961ZM7.68471 1.29575C6.77348 1.29575 5.988 2.07389 5.988 3.09267V3.12386H9.38143V3.09267C9.38143 2.0739 8.59596 1.29575 7.68471 1.29575Z" fill="#858585"/>
<path fill-rule="evenodd" clip-rule="evenodd" d="M13.5587 10.1139C11.6612 10.1139 10.1173 11.6583 10.1173 13.5569C10.1173 15.4554 11.6611 17 13.5587 17C15.4562 17 17 15.4556 17 13.5569C17 11.6583 15.4562 10.1139 13.5587 10.1139ZM11.6798 13.2308H13.2452V11.6759H14.032V13.2308H15.5888V14.0168H14.032V15.5802H13.2452V14.0168H11.6798V13.2308Z" fill="#858585"/>
</svg>
