<?xml version="1.0" encoding="UTF-8"?>
<svg id="Livello_2" data-name="Livello 2" xmlns="http://www.w3.org/2000/svg" viewBox="0 0 161.13 47.6">
  <defs>
    <style>
      .cls-1 {
        fill: #009fe3;
        stroke-width: 0px;
      }

      .cls-2 {
        fill: #fff;
        stroke: #1d1d1b;
        stroke-miterlimit: 10;
      }
    </style>
  </defs>
  <g id="Livello_1-2" data-name="Livello 1">
    <path class="cls-1" d="M105.85,47.43c1.14-1.97,2.17-4.01,3.46-5.88,1.37-1.99,3.01-3.79,4.45-5.73.44-.6.75-1.36.89-2.1.27-1.43.8-2.54,2.31-3.02.34-.11.66-.53.84-.88.58-1.17,1.07-2.38,1.65-3.55.13-.26.51-.61.71-.58,1.1.2,1.3-.43,1.32-1.34.53.1,1.03.19,1.67.3,0-3.15,1.18-5.74,3.41-7.7,1.68.07,3.26.47,4.5-1.13.67-.86,1.71-1.42,2.47-2.23.61-.64,1.04-1.44,1.56-2.17.13-.18.21-.46.39-.54,1.99-.93,3.87-2,6.19-2.29,1.24-.16,2.87-.54,3.91-1.69.37-.41.81-.83.97-1.33.23-.7.61-1.02,1.31-1.07.93-.08,1.56-.51,1.61-1.61,4.45,1.29,7.73-1.72,11.68-2.75-.65.56-1.26,1.17-1.95,1.67-1.09.8-2.28,1.46-3.32,2.31-.72.59-1.44,1.33-1.81,2.15-.46,1.02-1.15,1.41-2.13,1.61-.58.12-1.16.28-1.72.47-1.39.49-1.52.78-1.12,2.02-.53.29-1.04.56-1.55.83-.75.4-1.55.73-2.24,1.21-.52.36-.94.89-1.33,1.41-.58.77-1.08,1.59-1.75,2.6.05.1.23.48.47.95-1.57,1.25-3.01,2.76-5.45,2.71.18.57.31.99.37,1.19-.66.3-1.35.46-1.83.87-1.03.87-2.08,1.29-3.23.8-.88.91-1.73,1.72-2.5,2.61-.5.57-.87,1.26-1.3,1.88-.11.16-.24.29-.37.43-1.06,1.11-2.21,2.15-3.16,3.34-1.14,1.42-2.26,2.77-4.25,3.04.1.43.18.76.3,1.3-.82-.88-1.45-.43-2.16,0-1.25.76-2.57,1.41-3.85,2.14-1.74.99-3.14,2.29-3.69,4.31-.06.21-.16.51-.32.59-2.23,1-3.41,3.02-4.78,4.86-.04.06-.12.1-.17.15-.13-.06-.27-.11-.4-.17Z"/>
    <path class="cls-1" d="M53.43,47.28c1.14-1.97,2.17-4.01,3.46-5.88,1.37-1.99,3.01-3.79,4.45-5.73.44-.6.75-1.36.89-2.1.27-1.43.8-2.54,2.31-3.02.34-.11.66-.53.84-.88.58-1.17,1.07-2.38,1.65-3.55.13-.26.51-.61.71-.58,1.1.2,1.3-.43,1.32-1.34.53.1,1.03.19,1.67.3,0-3.15,1.18-5.74,3.41-7.7,1.68.07,3.26.47,4.5-1.13.67-.86,1.71-1.42,2.47-2.23.61-.64,1.04-1.44,1.56-2.17.13-.18.21-.46.39-.54,1.99-.93,3.87-2,6.19-2.29,1.24-.16,2.87-.54,3.91-1.69.37-.41.81-.83.97-1.33.23-.7.61-1.02,1.31-1.07.93-.08,1.56-.51,1.61-1.61,4.45,1.29,7.73-1.72,11.68-2.75-.65.56-1.26,1.17-1.95,1.67-1.09.8-2.28,1.46-3.32,2.31-.72.59-1.44,1.33-1.81,2.15-.46,1.02-1.15,1.41-2.13,1.61-.58.12-1.16.28-1.72.47-1.39.49-1.52.78-1.12,2.02-.53.29-1.04.56-1.55.83-.75.4-1.55.73-2.24,1.21-.52.36-.94.89-1.33,1.41-.58.77-1.08,1.59-1.75,2.6.05.1.23.48.47.95-1.57,1.25-3.01,2.76-5.45,2.71.18.57.31.99.37,1.19-.66.3-1.35.46-1.83.87-1.03.87-2.08,1.29-3.23.8-.88.91-1.73,1.72-2.5,2.61-.5.57-.87,1.26-1.3,1.88-.11.16-.24.29-.37.43-1.06,1.11-2.21,2.15-3.16,3.34-1.14,1.42-2.26,2.77-4.25,3.04.1.43.18.76.3,1.3-.82-.88-1.45-.43-2.16,0-1.25.76-2.57,1.41-3.85,2.14-1.74.99-3.14,2.29-3.69,4.31-.06.21-.16.51-.32.59-2.23,1-3.41,3.02-4.78,4.86-.04.06-.12.1-.17.15-.13-.06-.27-.11-.4-.17Z"/>
    <path class="cls-1" d="M0,47.28c1.14-1.97,2.17-4.01,3.46-5.88,1.37-1.99,3.01-3.79,4.45-5.73.44-.6.75-1.36.89-2.1.27-1.43.8-2.54,2.31-3.02.34-.11.66-.53.84-.88.58-1.17,1.07-2.38,1.65-3.55.13-.26.51-.61.71-.58,1.1.2,1.3-.43,1.32-1.34.53.1,1.03.19,1.67.3,0-3.15,1.18-5.74,3.41-7.7,1.68.07,3.26.47,4.5-1.13.67-.86,1.71-1.42,2.47-2.23.61-.64,1.04-1.44,1.56-2.17.13-.18.21-.46.39-.54,1.99-.93,3.87-2,6.19-2.29,1.24-.16,2.87-.54,3.91-1.69.37-.41.81-.83.97-1.33.23-.7.61-1.02,1.31-1.07.93-.08,1.56-.51,1.61-1.61,4.45,1.29,7.73-1.72,11.68-2.75-.65.56-1.26,1.17-1.95,1.67-1.09.8-2.28,1.46-3.32,2.31-.72.59-1.44,1.33-1.81,2.15-.46,1.02-1.15,1.41-2.13,1.61-.58.12-1.16.28-1.72.47-1.39.49-1.52.78-1.12,2.02-.53.29-1.04.56-1.55.83-.75.4-1.55.73-2.24,1.21-.52.36-.94.89-1.33,1.41-.58.77-1.08,1.59-1.75,2.6.05.1.23.48.47.95-1.57,1.25-3.01,2.76-5.45,2.71.18.57.31.99.37,1.19-.66.3-1.35.46-1.83.87-1.03.87-2.08,1.29-3.23.8-.88.91-1.73,1.72-2.5,2.61-.5.57-.87,1.26-1.3,1.88-.11.16-.24.29-.37.43-1.06,1.11-2.21,2.15-3.16,3.34-1.14,1.42-2.26,2.77-4.25,3.04.1.43.18.76.3,1.3-.82-.88-1.45-.43-2.16,0-1.25.76-2.57,1.41-3.85,2.14-1.74.99-3.14,2.29-3.69,4.31-.06.21-.16.51-.32.59-2.23,1-3.41,3.02-4.78,4.86-.04.06-.12.1-.17.15-.13-.06-.27-.11-.4-.17Z"/>
    <g>
      <path class="cls-2" d="M11.05,46.98c-.33,0-.56-.1-.7-.31-.26-.41-.45-1.12-.57-2.1-.07-.59-.1-1.15-.1-1.69,0-1.38.24-2.99.73-4.82l.52-2.18h-.03c-.05,0-.19.05-.43.14s-.52.23-.87.4-.66.34-.93.49c-.19.1-.45.16-.78.16-.57,0-1.23-.14-1.97-.41-.54-.19-.95-.41-1.24-.67-.33-.33-.64-.49-.93-.49-.1,0-.22.02-.34.05s-.24.05-.36.05c-.24,0-.48-.09-.73-.26s-.38-.45-.43-.82-.15-.59-.32-.66c-.1-.09-.19-.5-.26-1.24-.16-1.44-.23-2.99-.23-4.67v-1.45c0-.64.04-1.22.13-1.74.33-1.68.72-3.36,1.17-5.06.47-1.82,1.02-3.43,1.66-4.85,1.59-3.49,3.84-6.86,6.74-10.11.36-.41.81-.76,1.35-1.04.45-.21.86-.45,1.24-.71s.88-.4,1.5-.4,1.31.13,2.13.39c1.64.5,2.83,1.37,3.55,2.59.35.5.52.93.52,1.3l-.05.39c-.03.21-.05.42-.05.65s.02.41.06.56.06.32.06.53c0,.24-.05.57-.14.97s-.28.76-.56,1.05c-.12.14-.22.29-.29.44s-.1.29-.1.41v.08c0,.73-.5,1.67-1.5,2.83-.52.61-.81,1.03-.88,1.28s-.22.38-.47.38c-.09,0-.21,0-.38-.03s-.38-.04-.65-.08-.51-.06-.71-.08-.41-.05-.61-.1-.34-.11-.43-.17-.2-.09-.34-.09-.27.02-.4.06-.25.06-.35.06c-.19,0-.33-.06-.41-.18s-.13-.25-.13-.39c0-.16.05-.35.16-.57.24-.41.44-.62.6-.62.16-.05.27-.19.34-.41s.35-.74.86-1.56c.88-1.37,1.39-2.72,1.53-4.07l.05-.49c0-.14-.02-.23-.06-.29s-.13-.08-.25-.08l-.23.03c-.31.05-.81.5-1.5,1.34s-1.39,1.84-2.1,3c-1.07,1.78-1.83,3.1-2.27,3.94s-.74,1.58-.89,2.2c-.26.95-.67,2.05-1.22,3.29-.5,1.21-.77,2.16-.8,2.85-.07.64-.17,1.32-.31,2.05-.09.36-.13,1.09-.13,2.18,0,.5.01,1.09.04,1.76s.07,1.32.13,1.93.13.96.22,1.05h.05c.21,0,.72-.35,1.53-1.06s1.7-1.58,2.66-2.62,1.7-1.95,2.23-2.74.98-1.61,1.35-2.48.58-1.56.64-2.1c.1-.61.65-.91,1.63-.91.85,0,1.74.19,2.68.57s1.56.9,1.85,1.56c.05.14.08.29.08.47,0,.29-.07.61-.21.96s-.21.62-.21.83.07.45.21.71.21.49.21.66c0,.12-.03.22-.09.29s-.11.16-.14.27-.05.21-.05.3v.05c0,.24-.17.61-.52,1.12s-.52.8-.52.91-.09.31-.26.62-.41.67-.7,1.09c-.66,1.11-1,1.82-1.04,2.13-.09.47-.18.73-.29.78-.1.1-.37.65-.8,1.63-.67,1.66-1.14,2.62-1.4,2.88-.16.19-.23.39-.23.6s-.12.54-.36,1-.41,1.02-.49,1.67c-.03.67-.12,1.14-.26,1.4-.07.17-.16.6-.26,1.27-.02.38-.1.66-.23.84s-.44.39-.91.64c-.85.45-1.5.67-1.97.67ZM2.34,29.42c.17,0,.26-.27.26-.8l-.03-.7c0-.67.05-1.24.16-1.71.16-.69.34-1.55.54-2.58s.39-1.83.54-2.4c.16-.47.23-.88.23-1.24v-.08c0-.41.63-2.13,1.89-5.14.41-.95.62-1.5.62-1.66,0-.02,0-.03-.03-.03-.03,0-.12.1-.26.3s-.32.51-.54.95-.43.87-.61,1.31-.35.82-.51,1.14-.26.51-.31.56-.17.35-.35.91-.38,1.23-.61,2.04-.43,1.6-.62,2.37c-.26,1.05-.44,2.13-.54,3.22-.09.85-.13,1.57-.13,2.18,0,.92.1,1.37.29,1.37ZM2.62,32.56s.06-.02.08-.05c.03-.12.05-.32.05-.6-.02-.26-.06-.55-.13-.88-.12-.54-.22-.8-.31-.8-.07,0-.1.15-.1.44,0,.24.03.59.1,1.04.1.57.21.86.31.86ZM10.46,31.65c.14,0,.38-.14.73-.41.19-.17.34-.26.44-.26.07,0,.13.05.17.14s.09.14.14.14c.28,0,.6-.51.96-1.53.19-.54.29-.91.29-1.12,0-.05,0-.09-.03-.1-.1,0-.6.46-1.48,1.37-.92,1-1.37,1.55-1.37,1.63.02.09.07.13.16.13ZM11.26,46.17c.1-.07.31-.77.62-2.1.36-1.59.78-3.23,1.24-4.91s.81-2.77,1.04-3.25c.14-.26.21-.45.21-.57-.02-.12-.1-.24-.25-.35s-.26-.23-.34-.35-.12-.23-.12-.34c-.05-.28-.17-.41-.36-.41-.03,0-.12,0-.26.03s-.33.2-.57.54c-.28.47-.41.76-.41.88s-.16.57-.47,1.35c-.41,1.11-.73,2.35-.96,3.73-.19,1.07-.29,2.01-.29,2.83,0,.62.08,1.16.23,1.61.26.85.48,1.29.67,1.32Z"/>
      <path class="cls-2" d="M26.54,39.51c-.43,0-.8-.09-1.09-.26-.16-.1-.32-.19-.51-.27s-.32-.12-.43-.12-.3-.12-.58-.36-.58-.54-.89-.91c-.73-.83-1.09-1.46-1.09-1.89,0-.4.29-.63.86-.7.22-.02.43-.06.61-.14s.31-.16.38-.25c.17-.14.88-2.71,2.13-7.73.38-1.49.87-3.3,1.48-5.43s1.09-3.8,1.45-4.99c.31-1,.61-2.01.88-3.01.4-1.47.6-2.33.6-2.57,0-.41-.16-.99-.49-1.74-.35-.67-.52-1.21-.52-1.61,0-.1.03-.29.1-.54s.46-.49,1.17-.7c.43-.16.73-.31.89-.47s.27-.39.32-.7c.12-.74.29-1.24.52-1.48.17-.19.43-.29.78-.29l.31.03c.26.03.51.1.77.21s.44.23.56.38.26.27.43.36.31.14.43.14.26.03.43.09.32.14.45.23.37.14.7.14c.4,0,1.12-.1,2.18-.29,1.45-.29,3.03-.53,4.75-.7,2.06-.21,3.35-.35,3.89-.41s1.06-.13,1.58-.18l.39.8c.22.48.34.9.34,1.24,0,.4-.12.7-.35.91s-.55.4-.96.57-.78.28-1.13.31c-.12.02-.38.14-.78.36-.22.14-.41.21-.54.21-.07,0-.12,0-.14-.03s-.05-.03-.06-.03c-.14,0-.33.12-.57.36-.33.35-.99.56-1.97.65-.97.12-1.71.29-2.23.52-.21.12-.47.23-.78.34s-.59.18-.84.22-.56.13-.92.25c-1.02.38-1.65.73-1.89,1.04-.17.22-.31.56-.41,1.01-.07.31-.14.61-.22.88s-.13.48-.17.62c-.1.36-.17,1.67-.21,3.92.33-.02.64-.03.93-.05s.68-.06,1.15-.14.94-.16,1.4-.26.88-.18,1.26-.25.63-.1.75-.1c.17,0,.39.17.66.52s.5.71.69,1.1.29.7.29.92v.05c-.21.97-2.25,2.06-6.12,3.27-.93.28-1.67.51-2.2.69s-.93.33-1.18.45-.42.24-.52.35-.17.26-.22.43c-.09.33-.16.49-.21.49-.03,0-.05-.14-.05-.43s-.05-.43-.16-.43c-.07,0-.17.04-.31.13s-.25.21-.34.38-.13.32-.13.48c0,.24-.29,1.31-.86,3.19-.74,2.32-1.12,3.73-1.12,4.23,0,.19.04.29.13.29.07,0,.18-.06.32-.19s.59-.26,1.34-.38,1.22-.24,1.43-.36c.1-.05.4-.16.88-.34,1.11-.4,2.03-.68,2.78-.86.12-.03.31-.09.57-.17s.54-.16.84-.25.63-.19.99-.3.65-.19.89-.25l1.97-.65s.04-.03.08-.03c.55-.17,1.06-.26,1.53-.26.05,0,.21,0,.48.01s.4.13.4.35c0,.19-1.67.7-5.01,1.53-.5.14-.86.25-1.09.34s-.36.2-.4.34-.06.35-.06.62c0,.55.12.83.36.83s.66-.16,1.26-.49,1.02-.49,1.28-.49c.17,0,.3-.04.38-.12s.12-.14.12-.19c0-.03,0-.08-.03-.13s-.09-.1-.22-.14-.19-.08-.19-.12c0-.07.18-.16.54-.26.28-.09.49-.13.65-.13s.26.03.3.09.1.09.17.09c.09,0,.19-.06.31-.18.26-.26.48-.4.65-.41.17,0,.26.11.26.34,0,.17-.04.26-.13.26l-.16-.05c-.14,0-.24.11-.31.34s-.18.42-.34.6c-.28.31-1.1.85-2.46,1.61-1.07.59-1.95,1.12-2.62,1.58-.36.24-.61.36-.73.36-.03,0-.05-.01-.05-.04s0-.04-.03-.04c-.1,0-.29.1-.57.31-.74.54-1.47,1-2.19,1.39s-1.21.58-1.48.58-.65.11-1.15.34c-.47.29-.94.48-1.43.54-.67.21-1.17.39-1.48.54-.67.35-1.37.52-2.07.52ZM25.19,34.14c.4,0,.63-.24.69-.71s.21-1.18.44-2.11.5-1.85.79-2.75c.31-1,.6-2.03.86-3.09.45-1.83.67-3.09.67-3.76,0-.24-.03-.36-.1-.36-.19,0-.54.82-1.04,2.46-.24.76-.45,1.44-.61,2.04s-.25.96-.25,1.08-.02.24-.06.35-.1.19-.16.23-.12.16-.18.34-.11.4-.14.65-.1.57-.19.95-.2.74-.31,1.08-.22.73-.32,1.19-.18.87-.22,1.24-.06.64-.06.82c0,.24.07.36.21.36ZM29.41,18.81c.14,0,.25-.15.34-.44.1-.24.16-.55.16-.93,0-.24-.03-.36-.08-.36-.07,0-.16.06-.29.17s-.21.28-.26.51-.08.42-.08.6c0,.31.07.47.21.47ZM32.27,33.8c.17,0,.38-.03.62-.08.54-.09.93-.22,1.19-.41.12-.09.38-.13.78-.13.24,0,.5.02.78.05.41.05.71.08.88.08.19,0,.32-.06.4-.17s.16-.29.23-.54.12-.45.12-.61v-.13c0-.09-.07-.16-.21-.21-.07-.02-.16-.03-.26-.03-.14,0-.35.03-.62.09s-.57.16-.88.29-.47.24-.47.32-.04.16-.12.21-.17.08-.27.08c-.21,0-.51.07-.89.21s-.74.3-1.06.48-.48.32-.48.4c0,.07.09.1.26.1Z"/>
      <path class="cls-2" d="M59.16,38.86c-.71,0-1.37-.14-1.97-.41-.69-.35-1.29-.75-1.8-1.22s-.93-.7-1.26-.7l-.29.03c-.71,0-1.64-1.27-2.8-3.8s-1.74-5.36-1.74-8.49c0-1.76.19-3.63.57-5.6.54-2.87,1.02-4.88,1.45-6.04.69-1.9,1.53-3.61,2.53-5.12s1.85-2.41,2.58-2.68c.31-.14.47-.31.47-.51s.7-.34,2.1-.43c.48-.05.92-.08,1.3-.08.29,0,.61.02.96.06s.93.21,1.76.51c2.47.88,4.37,2,5.68,3.35.54.61,1,1.29,1.4,2.06s.61,1.39.62,1.85c0,.31.03.47.08.47s.1-.06.16-.17.1-.17.16-.17.08.15.08.44c0,.17-.03.32-.08.45s-.13.19-.22.19-.14.08-.14.23c0,.07.01.14.04.21s.04.14.04.21c0,.19-.04.32-.12.39s-.12.14-.12.21.05.16.14.27.14.32.14.64l-.03.57c0,.38.03.67.1.88.02.07.03.22.03.44,0,.21-.02.57-.05,1.09s-.1,1.21-.21,2.09-.22,1.66-.34,2.37l-.03.34c0,.21.04.31.13.31.07,0,.13-.07.17-.21s.06-.3.06-.48.02-.36.05-.53.08-.26.13-.26c.03,0,.05.11.05.34l-.03.47c-.21,2.68-.67,4.88-1.37,6.59-.24.55-.41.83-.49.83s-.32.37-.7,1.12c-.14.33-.32.66-.54,1s-.44.6-.65.79c-.52.52-.86.98-1.04,1.37s-.55.9-1.13,1.52-1.19,1.19-1.83,1.72-1.15.88-1.53,1.04c-.9.31-1.73.47-2.49.47ZM52.13,31.8s.03-.04.03-.13c0-.19-.05-.66-.16-1.4-.14-.93-.21-2.05-.21-3.35l.03-1.87c0-1.38-.07-2.07-.21-2.07-.07,0-.15.22-.23.65-.05.35-.08.85-.08,1.5,0,.16,0,.51.01,1.06s.05,1.31.13,2.26.19,1.7.32,2.26c.19.73.31,1.09.36,1.09ZM56.18,35.18c.83,0,1.66-.35,2.49-1.04.5-.4,1.12-1.02,1.84-1.88s1.45-1.79,2.18-2.81c.9-1.3,1.76-3.07,2.58-5.32s1.39-4.34,1.7-6.28c.16-1.21.23-2.35.23-3.42,0-2.59-.47-4.7-1.4-6.33-.35-.59-.76-1.02-1.23-1.31s-1.18-.52-2.11-.71c-.52-.12-.91-.18-1.17-.18s-.39.06-.39.18c0,.09.06.19.18.32s.18.26.18.38v.13c0,.07-.08.22-.23.44-.1.17-.19.35-.27.52s-.12.31-.12.4-.09.26-.27.48-.41.46-.67.7-.54.53-.8.87-.48.64-.62.91-.31.52-.48.75-.32.39-.45.47-.23.17-.31.29-.12.21-.12.29-.05.25-.14.51-.21.54-.35.84-.24.57-.31.82-.1.43-.1.57c0,.05,0,.1.03.16s.03.11.03.18c0,.36-.14.82-.41,1.37-.86,1.57-1.34,2.62-1.43,3.14-.07.4-.1.89-.1,1.48,0,1.23,0,1.91-.03,2.05v3.42c.02,1.18.06,2.07.14,2.68s.24,1.23.48,1.85l.34.96c.21.62.36,1.11.47,1.45s.22.55.36.62c.07.03.17.05.31.05ZM61.47,32.82c.14,0,.58-.39,1.32-1.17.57-.59.92-.88,1.04-.88.02,0,.03.02.03.05l-.08.41c0,.16.08.24.23.26.16,0,.35-.17.6-.52.86-1.38,1.65-2.83,2.36-4.33.31-.66.47-1.07.47-1.24s.15-.61.44-1.32c.86-2.18,1.34-4.17,1.43-5.97.03-1.05.07-1.64.12-1.75s.06-.27.06-.48c0-.22-.03-.61-.09-1.17s-.17-1.25-.32-2.09-.32-1.48-.49-1.93c-.35-.86-.57-1.3-.67-1.3-.03,0-.05.07-.05.21,0,.17.03.46.1.86.09.62.13,1.6.13,2.93,0,2.25-.06,3.43-.19,3.54s-.19.59-.19,1.44c-.03.88-.16,1.52-.38,1.91s-.32.78-.32,1.18c-.02.17-.07.42-.16.75-.1.41-.36,1.17-.78,2.26l-.52,1.43c-.33.83-1.01,2.07-2.05,3.71-1.09,1.71-1.73,2.57-1.92,2.57-.05,0-.1.03-.16.1s-.08.16-.08.26c0,.19.04.29.13.29ZM66.63,29.39s.1-.02.21-.05.22-.14.36-.31.21-.3.21-.39-.04-.13-.13-.13-.22.09-.41.26c-.1.09-.19.18-.26.27s-.1.16-.1.19c0,.1.04.16.13.16ZM69.93,24.85s.08-.01.13-.04.1-.09.14-.18.06-.19.06-.3c0-.14-.05-.21-.16-.21-.02,0-.05.01-.1.04s-.1.09-.16.18-.08.19-.08.27c0,.16.05.23.16.23ZM69.87,22.1c.07,0,.11-.07.13-.21,0-.09-.02-.17-.05-.25s-.06-.12-.08-.12c-.03,0-.06.09-.08.26,0,.12.02.21.05.26l.03.05ZM69.9,18.76c.07,0,.1-.12.1-.36,0-.12-.01-.23-.04-.32s-.05-.14-.06-.14c-.03,0-.05.13-.05.39,0,.29.02.44.05.44Z"/>
      <path class="cls-2" d="M78.3,39.33h-.16c-.16,0-.35-.02-.6-.05s-.51-.14-.8-.32-.55-.38-.78-.58-.35-.37-.36-.48-.09-.26-.21-.43-.27-.35-.45-.52-.32-.35-.43-.54-.19-.47-.25-.83-.13-.89-.19-1.6-.11-1.41-.13-2.14v-.52c0-.62.06-1.44.18-2.46l.23-2.39c.07-.95.22-2.01.44-3.16.4-2.16.69-3.37.88-3.63.1-.19.16-.35.16-.49v-.1c.02-.17.2-.81.54-1.92.66-2.13,1.53-4.69,2.62-7.68l1.35-3.73c.47-1.4.93-2.29,1.37-2.67.24-.21.52-.31.83-.31.29,0,.62.08.99.25s.73.25,1.09.25h.18c.24,0,.56.08.95.23s.76.35,1.1.58.58.45.7.66c.07.14.16.29.27.44s.22.3.34.43.17.26.17.4c0,.1-.04.22-.12.36s-.16.3-.25.48-.16.35-.21.52-.13.36-.23.6-.21.44-.31.62-.21.42-.32.71-.2.58-.26.86-.16.65-.31,1.12-.3.93-.45,1.37-.38,1.08-.66,1.91-.56,1.63-.83,2.42-.57,1.59-.89,2.39-.61,1.4-.86,1.8-.43.79-.57,1.15-.21.63-.21.8v.21c0,.29-.04.48-.13.54s-.22.35-.41.86c-.5,1.33-.82,2.42-.96,3.28s-.33,1.75-.57,2.68c-.21.85-.31,1.36-.31,1.53,0,.05,0,.08.01.09s.02.01.04.01c.31,0,1.78-.28,4.41-.83,3.41-.74,5.57-1.12,6.48-1.12.5,0,.75.1.75.31,0,.07-.06.14-.18.21-.26.16-1.13.41-2.61.77s-2.71.69-3.7,1c-1.12.36-1.69.6-1.69.7,0,.02.05.03.16.03.36,0,1.01-.09,1.95-.26,1.4-.24,2.52-.49,3.35-.75.38-.14.8-.26,1.24-.36.64-.16,1.18-.23,1.61-.23.14,0,.26.02.36.06s.16.18.16.4c0,.24-.12.56-.36.96s-.52.77-.83,1.12-.57.54-.78.57c-.41.07-1.05.3-1.92.69s-1.62.8-2.26,1.22-1.36.66-2.15.71c-.5.05-1.12.19-1.85.41s-1.47.5-2.22.83l-.08.05c-.21.09-.35.13-.41.13-.12.07-.22.15-.3.23s-.19.14-.35.16ZM74.49,31.91s.08-.04.13-.12.09-.19.12-.32.04-.26.04-.36v-.29c0-.29.04-.76.13-1.4.26-1.71.54-3.01.86-3.89.41-1.3.74-2.4.99-3.32.48-1.69,1.12-3.72,1.89-6.07l1.14-3.48c.33-1.09.49-1.75.49-2,0-.19-.08-.29-.23-.29-.05,0-.12.03-.19.09s-.2.27-.38.64c-.33.71-.93,2.27-1.79,4.67-.38,1.09-.82,2.5-1.32,4.24s-.86,3.13-1.09,4.16c-.26,1.26-.47,2.52-.62,3.79-.19,1.42-.29,2.52-.29,3.29,0,.43.04.65.13.65ZM76.41,32.95l.23-.93c.12-.64.18-1.18.18-1.63l-.08-.67-.23.83c-.12.36-.18.82-.18,1.37l.08,1.04ZM76.95,28.49c.05,0,.14-.17.26-.52.16-.45.23-.81.23-1.09,0-.12,0-.18-.03-.18-.07,0-.16.18-.26.54-.16.54-.23.91-.23,1.12,0,.07,0,.11.03.13ZM78.56,21.95s.08-.02.13-.05c.12-.07.18-.17.18-.31,0-.12-.03-.18-.1-.18-.03,0-.08.02-.13.06s-.1.1-.14.17-.06.14-.06.21c.02.07.04.1.08.1h.05ZM79.08,20.32s.09-.02.16-.06.12-.12.16-.22.05-.22.05-.34c0-.17-.03-.26-.08-.26-.03,0-.1.09-.19.27s-.14.33-.14.45c0,.1.02.16.05.16Z"/>
      <path class="cls-2" d="M97.37,39.72c-.35,0-.59-.09-.73-.27s-.33-.3-.57-.35c-.31-.03-.62-.34-.92-.92s-.51-1.24-.61-1.98c-.05-.43-.08-.95-.08-1.56,0-.76.06-1.83.18-3.22.21-2.14.74-4.83,1.61-8.07.88-3.37,1.59-5.82,2.13-7.34l1.79-5.47c.92-2.9,1.48-4.61,1.69-5.11.28-.57.68-.95,1.22-1.14.19-.07.38-.1.57-.1.35,0,.67.1.97.31s.64.35,1,.44c.19.05.41.16.67.31.9.55,1.35,1.08,1.35,1.58,0,.31-.12,1.08-.36,2.31l-.1.57c-.19,1.18-.54,2.31-1.04,3.4-.66,1.54-1.17,3.03-1.53,4.46-.14.62-.29,1.02-.44,1.21s-.36.58-.62,1.21c-.67,1.56-1.13,2.85-1.37,3.89-.31,1.18-.61,2.12-.91,2.83-.36.97-.75,2.54-1.17,4.72l-.44,2.44c-.22,1.07-.37,1.92-.44,2.54l-.21,1.4c-.12,1.05-.22,1.63-.29,1.74-.02.02-.11.04-.29.08-.4.07-.75.1-1.06.1ZM96.12,37.9c.05,0,.1-.03.14-.08s.11-.27.21-.65.19-.84.29-1.37.19-1.14.29-1.8.18-1.23.25-1.7c.17-1.88,1.05-5.55,2.65-11,.47-1.59.81-2.81,1.04-3.64s.35-1.4.36-1.67v-.08c0-.16-.03-.23-.1-.23l-.16.05c-.05,0-.08-.07-.08-.21s.03-.37.1-.7c.12-.76.26-1.29.41-1.58.17-.48.26-1.04.26-1.66s-.07-.96-.21-.96h-.03c-.12.07-.35.49-.69,1.26s-.7,1.71-1.1,2.81c-.97,2.7-1.56,4.61-1.79,5.73-.12.66-.24,1.07-.36,1.23s-.24.56-.36,1.18c-.14.78-.33,1.51-.57,2.2-.47,1.52-.85,3.35-1.14,5.47-.21,1.56-.31,2.85-.31,3.89,0,1.19.16,2.19.49,2.98.14.35.28.52.41.52ZM97.81,33.49c.07-.21.13-.41.19-.62s.11-.45.16-.71.07-.51.09-.74l.03-.78c-.17.61-.29,1.05-.34,1.35s-.1.8-.13,1.5ZM98.38,30.64c.07-.17.13-.35.18-.52s.1-.37.16-.6.08-.44.08-.65l.03-.65c-.17.57-.29.99-.34,1.26s-.09.65-.1,1.15ZM99.99,23.87s.09-.07.16-.22.13-.29.17-.43.07-.26.09-.36c0-.09,0-.13-.03-.13-.03,0-.1.09-.19.27s-.17.43-.22.74c0,.09,0,.13.03.13Z"/>
      <path class="cls-2" d="M109.58,39.51c-.43,0-.8-.09-1.09-.26-.16-.1-.32-.19-.51-.27s-.32-.12-.43-.12-.3-.12-.58-.36-.58-.54-.89-.91c-.73-.83-1.09-1.46-1.09-1.89,0-.4.29-.63.86-.7.22-.02.43-.06.61-.14s.31-.16.38-.25c.17-.14.88-2.71,2.13-7.73.38-1.49.87-3.3,1.48-5.43s1.09-3.8,1.45-4.99c.31-1,.61-2.01.88-3.01.4-1.47.6-2.33.6-2.57,0-.41-.16-.99-.49-1.74-.35-.67-.52-1.21-.52-1.61,0-.1.03-.29.1-.54s.46-.49,1.17-.7c.43-.16.73-.31.89-.47s.27-.39.32-.7c.12-.74.29-1.24.52-1.48.17-.19.43-.29.78-.29l.31.03c.26.03.51.1.77.21s.44.23.56.38.26.27.43.36.31.14.43.14.26.03.43.09.32.14.45.23.37.14.7.14c.4,0,1.12-.1,2.18-.29,1.45-.29,3.03-.53,4.75-.7,2.06-.21,3.35-.35,3.89-.41s1.06-.13,1.58-.18l.39.8c.22.48.34.9.34,1.24,0,.4-.12.7-.35.91s-.55.4-.96.57-.78.28-1.13.31c-.12.02-.38.14-.78.36-.22.14-.41.21-.54.21-.07,0-.12,0-.14-.03s-.05-.03-.06-.03c-.14,0-.33.12-.57.36-.33.35-.99.56-1.97.65-.97.12-1.71.29-2.23.52-.21.12-.47.23-.78.34s-.59.18-.84.22-.56.13-.92.25c-1.02.38-1.65.73-1.89,1.04-.17.22-.31.56-.41,1.01-.07.31-.14.61-.22.88s-.13.48-.17.62c-.1.36-.17,1.67-.21,3.92.33-.02.64-.03.93-.05s.68-.06,1.15-.14.94-.16,1.4-.26.88-.18,1.26-.25.63-.1.75-.1c.17,0,.39.17.66.52s.5.71.69,1.1.29.7.29.92v.05c-.21.97-2.25,2.06-6.12,3.27-.93.28-1.67.51-2.2.69s-.93.33-1.18.45-.42.24-.52.35-.17.26-.22.43c-.09.33-.16.49-.21.49-.03,0-.05-.14-.05-.43s-.05-.43-.16-.43c-.07,0-.17.04-.31.13s-.25.21-.34.38-.13.32-.13.48c0,.24-.29,1.31-.86,3.19-.74,2.32-1.12,3.73-1.12,4.23,0,.19.04.29.13.29.07,0,.18-.06.32-.19s.59-.26,1.34-.38,1.22-.24,1.43-.36c.1-.05.4-.16.88-.34,1.11-.4,2.03-.68,2.78-.86.12-.03.31-.09.57-.17s.54-.16.84-.25.63-.19.99-.3.65-.19.89-.25l1.97-.65s.04-.03.08-.03c.55-.17,1.06-.26,1.53-.26.05,0,.21,0,.48.01s.4.13.4.35c0,.19-1.67.7-5.01,1.53-.5.14-.86.25-1.09.34s-.36.2-.4.34-.06.35-.06.62c0,.55.12.83.36.83s.66-.16,1.26-.49,1.02-.49,1.28-.49c.17,0,.3-.04.38-.12s.12-.14.12-.19c0-.03,0-.08-.03-.13s-.09-.1-.22-.14-.19-.08-.19-.12c0-.07.18-.16.54-.26.28-.09.49-.13.65-.13s.26.03.3.09.1.09.17.09c.09,0,.19-.06.31-.18.26-.26.48-.4.65-.41.17,0,.26.11.26.34,0,.17-.04.26-.13.26l-.16-.05c-.14,0-.24.11-.31.34s-.18.42-.34.6c-.28.31-1.1.85-2.46,1.61-1.07.59-1.95,1.12-2.62,1.58-.36.24-.61.36-.73.36-.03,0-.05-.01-.05-.04s0-.04-.03-.04c-.1,0-.29.1-.57.31-.74.54-1.47,1-2.19,1.39s-1.21.58-1.48.58-.65.11-1.15.34c-.47.29-.94.48-1.43.54-.67.21-1.17.39-1.48.54-.67.35-1.37.52-2.07.52ZM108.23,34.14c.4,0,.63-.24.69-.71s.21-1.18.44-2.11.5-1.85.79-2.75c.31-1,.6-2.03.86-3.09.45-1.83.67-3.09.67-3.76,0-.24-.03-.36-.1-.36-.19,0-.54.82-1.04,2.46-.24.76-.45,1.44-.61,2.04s-.25.96-.25,1.08-.02.24-.06.35-.1.19-.16.23-.12.16-.18.34-.11.4-.14.65-.1.57-.19.95-.2.74-.31,1.08-.22.73-.32,1.19-.18.87-.22,1.24-.06.64-.06.82c0,.24.07.36.21.36ZM112.46,18.81c.14,0,.25-.15.34-.44.1-.24.16-.55.16-.93,0-.24-.03-.36-.08-.36-.07,0-.16.06-.29.17s-.21.28-.26.51-.08.42-.08.6c0,.31.07.47.21.47ZM115.31,33.8c.17,0,.38-.03.62-.08.54-.09.93-.22,1.19-.41.12-.09.38-.13.78-.13.24,0,.5.02.78.05.41.05.71.08.88.08.19,0,.32-.06.4-.17s.16-.29.23-.54.12-.45.12-.61v-.13c0-.09-.07-.16-.21-.21-.07-.02-.16-.03-.26-.03-.14,0-.35.03-.62.09s-.57.16-.88.29-.47.24-.47.32-.04.16-.12.21-.17.08-.27.08c-.21,0-.51.07-.89.21s-.74.3-1.06.48-.48.32-.48.4c0,.07.09.1.26.1Z"/>
      <path class="cls-2" d="M132.04,40.65c-.17,0-.31-.03-.4-.09s-.15-.18-.16-.36-.03-.37-.06-.56-.07-.35-.1-.49c-.12-.47-.18-1.14-.18-2.02,0-.67.03-1.45.1-2.33.09-1.47.13-2.66.13-3.58.03-2.06.21-3.09.52-3.09.1,0,.16.1.18.31,0,.21-.05.6-.16,1.17-.03.26-.05.47-.05.62,0,.17.03.26.08.26.22,0,.64-1.49,1.24-4.46.31-1.49.55-2.64.73-3.46s.31-1.43.41-1.83.2-.71.29-.93.15-.46.18-.7c.03-.17.05-.32.05-.44v-.1c0-.29.06-.52.18-.67.16-.24.43-1.05.83-2.41.4-1.45.6-2.31.6-2.57-.03-.26-.09-.39-.16-.39-.17,0-.45.54-.83,1.63-.62,1.78-1.01,2.93-1.17,3.45-.5,1.42-1.05,3.63-1.66,6.64-.09.38-.21.57-.36.57-.09,0-.14-.1-.16-.31,0-.26.1-.84.29-1.74.45-2.13.99-4.24,1.63-6.35.69-2.32,1.25-4.31,1.69-5.99.67-2.68,1.25-4.48,1.74-5.39.38-.71.8-1.06,1.24-1.06.14,0,.28.03.41.08s.37.1.7.16.66.1,1,.13.64.09.92.16.46.13.56.19.24.09.43.09c.28,0,.67-.07,1.19-.21,1.14-.26,2.34-.39,3.61-.39,1.49,0,3.04.18,4.67.54.81.21,1.5.54,2.06,1.01s.86.95.91,1.44.27,1.08.69,1.78.62,1.29.62,1.79-.19,1.18-.57,2.07c-.24.64-.61,1.29-1.09,1.95s-1.28,1.6-2.39,2.83c-1.28,1.45-2.53,2.68-3.76,3.7s-2.73,2.06-4.51,3.15c-.33.21-.49.38-.49.52,0,.12.1.21.29.26.28.07.78.16,1.5.26,1.75.26,3,.41,3.76.44l4.33.26c2.44.14,3.66.29,3.66.44,0,.05-.07.13-.22.25s-.37.22-.67.32-.61.17-.92.19-1.01.04-2.1.04h-1.01c-1.52.02-2.36.1-2.52.23-.03.07-.11.13-.22.18s-.26.08-.43.08c-.09,0-.13-.02-.13-.05s.07-.1.21-.18.21-.17.21-.26c0-.17-.41-.3-1.22-.39-.29-.03-.54-.05-.75-.05-.5,0-.75.06-.75.18,0,.07.05.13.16.19s.16.11.16.14-.11.06-.34.08c-.41.03-.62.14-.62.31,0,.12.18.22.54.31l.96.18c.36.07.74.14,1.14.22s.9.16,1.52.26,1.19.17,1.72.23.99.13,1.36.19.57.11.61.13.07.03.1.03c.09,0,.24-.06.45-.17s.51-.17.87-.17c.19,0,.35.03.48.08s.19.11.19.18c0,.17-.65.33-1.95.47-2.07.26-4.09.39-6.04.39l-.99-.03c-.67-.03-1.37-.07-2.09-.1s-1.3-.06-1.75-.06-.87-.03-1.27-.08-.68-.09-.86-.14-.49-.11-.96-.17-.95-.12-1.45-.17-.9-.08-1.19-.08c-.07,0-.14.1-.22.3s-.24.83-.48,1.91c-.1.52-.2.97-.29,1.35s-.19.87-.32,1.48-.25,1.19-.35,1.76c-.16.86-.32,1.49-.51,1.88s-.5.83-.96,1.31-.83.82-1.12,1.01-.67.29-1.15.29ZM132.54,38.26c.05-.02.12-.08.21-.18s.16-.23.21-.39c.16-.4.35-1.54.6-3.42s.45-3.22.62-4.01.26-1.4.26-1.83c-.03-.36-.13-.62-.29-.78-.07-.07-.14-.1-.21-.1-.09,0-.18.06-.27.18s-.22.67-.38,1.63c-.41,2.63-.66,4.68-.73,6.15-.03,1.19-.09,1.93-.16,2.2v.21c0,.22.04.34.13.34ZM132.48,39.17c.07,0,.1-.08.1-.23,0-.09-.02-.17-.05-.25s-.06-.12-.08-.12c-.03,0-.05.09-.05.26,0,.22.03.34.08.34ZM135,23.92c.07,0,.16-.03.29-.1.33-.17.49-.53.49-1.06,0-.4.1-.8.29-1.22.24-.67.48-1.49.7-2.44.29-1.28.53-2.25.71-2.9s.32-1.18.4-1.56c.05-.31.08-.56.08-.75,0-.24-.07-.45-.21-.62s-.24-.26-.31-.26-.16.16-.26.49c-.12.45-.18.81-.18,1.09s-.06.48-.18.6-.26.59-.41,1.4c-.07.52-.21,1.15-.43,1.88s-.59,1.91-1.13,3.54c-.19.57-.29,1.02-.29,1.35,0,.38.14.57.41.57h.03ZM138.86,24.39c.22,0,.91-.38,2.05-1.14,1.71-1.16,3.52-2.52,5.43-4.08s3.24-2.76,3.98-3.59c.62-.74.93-1.27.93-1.58,0-.24-.17-.36-.52-.36-.5,0-1.15.38-1.95,1.14-.73.69-1.91,1.71-3.57,3.05s-3.16,2.51-4.53,3.51-2.05,1.89-2.05,2.67c0,.26.07.39.21.39ZM140.19,20.81c.21,0,.4-.09.57-.26s.6-.48,1.28-.91,1.78-1.27,3.28-2.52c.93-.8,1.84-1.56,2.72-2.28.43-.38.99-1.04,1.67-1.97s1.3-1.86,1.85-2.79.83-1.53.83-1.83c0-.16-.09-.27-.26-.35s-.49-.12-.96-.12c-.48.02-1.18.07-2.1.16-1.18.12-2.22.31-3.13.56s-1.54.52-1.91.82c-.1.1-.29.46-.57,1.06s-.58,1.32-.92,2.15-.65,1.65-.95,2.46c-.1.28-.21.51-.31.71s-.18.3-.23.31-.1.12-.14.34-.07.48-.08.8-.06.69-.17,1.1-.22.78-.35,1.09-.23.59-.31.83-.12.39-.12.44c0,.12.1.18.29.18ZM152.4,6.34c.07,0,.13-.02.18-.06s.08-.09.08-.14c0-.1-.09-.22-.26-.34-.26-.16-.68-.23-1.27-.23s-.91.09-.91.26c0,.1.1.19.31.25s.43.09.67.09c.57,0,.92.04,1.04.13.03.03.09.05.16.05Z"/>
    </g>
  </g>
</svg>