<?xml version="1.0" encoding="UTF-8"?>
<svg id="Livello_2" data-name="Livello 2" xmlns="http://www.w3.org/2000/svg" viewBox="0 0 401.07 105.05">
  <defs>
    <style>
      .cls-1 {
        opacity: .95;
      }

      .cls-1, .cls-2 {
        fill: #1f3d7c;
      }

      .cls-1, .cls-2, .cls-3 {
        stroke-width: 0px;
      }

      .cls-3 {
        fill: #1f98d4;
      }
    </style>
  </defs>
  <g id="Livello_1-2" data-name="Livello 1">
    <path class="cls-3" d="M58.67,11.87c5.38,0,10.76,0,16.14,0,8.78-.02,16.09,3.34,21.93,9.8,4.32,4.77,6.68,10.46,7.27,16.89,1.47,15.98-9.45,30.6-25.17,34.35-2.79.67-5.72.85-8.6.97-3.76.16-7.52.04-11.28.04-2.98,0-4.56,1.21-5.26,4.1-1.93,7.99-3.84,16-5.78,23.99-.51,2.08-1.78,2.99-3.94,2.99-6.39,0-12.79-.14-19.17.04-5.39.15-12.07-5.04-10.21-12.83,3.59-15.02,6.91-30.1,10.35-45.16,2.08-9.11,4.16-18.22,6.3-27.32,1.16-4.95,5.04-7.9,10.07-7.88,5.78.02,11.57,0,17.35,0Z"/>
    <path class="cls-1" d="M44.39,0c5.38,0,10.76,0,16.14,0,8.78-.02,16.09,3.34,21.93,9.8,4.32,4.77,6.68,10.46,7.27,16.89,1.47,15.98-9.45,30.6-25.17,34.35-2.79.67-5.72.85-8.6.97-3.76.16-7.52.04-11.28.04-2.98,0-4.56,1.21-5.26,4.1-1.93,7.99-3.84,16-5.78,23.99-.51,2.08-1.78,2.99-3.94,2.99-6.39,0-12.79-.14-19.17.04-5.39.15-12.07-5.04-10.21-12.83,3.59-15.02,6.91-30.1,10.35-45.16,2.08-9.11,4.16-18.22,6.3-27.32C18.14,2.93,22.01-.02,27.04,0c5.78.02,11.57,0,17.35,0Z"/>
    <path class="cls-2" d="M133.73,73.3c1.72-7.02,3.49-14.03,5.14-21.06,2-8.54,3.92-17.11,5.83-25.67.5-2.25,1.57-4.29,3.96-4.27,8.88.08,17.8.09,26.64.84,5.69.48,10.5,3.4,12.11,9.44,1.79,6.72.44,12.93-4.37,18.11-4.64,5-10.67,7.29-17.26,8.17-3.3.44-6.67.54-10.01.61-2.8.06-4.47,1.21-5.06,4.02-.7,3.36-1.57,6.69-2.3,10.04-.6,2.75-2.21,4.1-5.06,4.01-2.1-.07-4.23.14-6.31-.07-1.14-.11-2.22-.83-3.32-1.28,0-.96,0-1.92,0-2.88ZM164.04,32.49c-3.29-.05-5.89-.09-6.72,2.84-1,3.47-1.82,7.01-2.36,10.57-.13.88,1.07,2.78,1.78,2.84,4.91.43,9.82.23,13.61-3.57,2.23-2.24,2.95-5.07,2.13-8.18-.79-3.01-3.23-3.75-5.88-4.16-1.13-.18-2.26-.31-2.56-.34Z"/>
    <path class="cls-3" d="M285.97,77.82q-7.25,0-5.64-7.04c3.31-14.52,6.63-29.04,9.91-43.56.57-2.51,1.52-4.81,4.46-4.78,8.51.1,17.13-.39,25.5.82,13.32,1.92,18.04,15.11,9.86,25.96-4.42,5.87-10.67,8.55-17.66,9.64-3.58.56-7.23.67-10.86.81-2.86.11-4.69,1.12-5.23,4.17-.49,2.82-1.28,5.58-1.95,8.37-1.19,4.99-1.96,5.61-6.97,5.62-.48,0-.96,0-1.44,0ZM304.75,49.3c1.88-.26,3.81-.36,5.64-.83,3.81-.97,6.78-2.98,7.79-7.1,1.07-4.38-.99-7.66-5.42-8.3-1.97-.28-3.99-.24-5.99-.23-2.19,0-3.54,1.12-4.02,3.3-.6,2.69-1.26,5.37-1.89,8.05-.98,4.14-.34,4.96,3.9,5.1Z"/>
    <path class="cls-2" d="M251.92,60.27c.57-.78,1.22-1.51,1.7-2.34,3.58-6.11,7.16-12.21,10.68-18.36,1.68-2.93,3.99-4.49,7.48-4.26,2.39.16,4.79.06,7.19.02,1.97-.03,2.38.88,1.62,2.53-.44.95-.91,1.9-1.44,2.8-10.17,17.22-20.4,34.4-30.49,51.67-1.96,3.35-4.45,5.1-8.37,4.76-1.43-.13-2.87-.01-4.31-.02-4.02-.03-4.4-.74-2.35-4.35,1.13-2,2.05-4.17,3.47-5.94,3.37-4.23,3.35-8.82,2.42-13.83-2.08-11.18-3.89-22.41-5.81-33.62-.5-2.94.26-3.88,3.14-3.97,10.35-.33,10.45-.2,11.92,10.18.68,4.82,1.6,9.6,2.41,14.4.25.11.5.21.75.32Z"/>
    <path class="cls-2" d="M192.71,46.41c-.7-6.61,1.35-9.67,7.07-10.68,7.2-1.28,14.45-1.68,21.63.15,6.92,1.77,9.52,5.89,8.04,12.78-1.78,8.3-3.72,16.57-5.65,24.84-.74,3.16-2.18,4.22-5.49,4.28-1.44.03-2.87.03-4.31,0-3.02-.07-3.52-.54-3.94-3.96-1.62.91-3.11,1.83-4.66,2.63-3.83,1.97-7.88,3.01-12.18,2.29-9.36-1.56-12.94-11.29-7.06-19.18,3.56-4.78,8.89-6.44,14.4-7.47,4.03-.76,8.15-1.03,12.2-1.7,1.13-.19,2.86-.79,3.1-1.57.58-1.88-.65-3.56-2.52-3.83-3.46-.49-7-.9-10.46-.65-3.36.23-6.65,1.33-10.16,2.08ZM213.59,58.58c-4.77-.64-10.84.48-13.69,3.02-1.16,1.04-2.16,3.05-2.06,4.54.15,2.13,1.72,3.76,4.27,3.71,8.24-.16,10.82-2.65,11.47-11.27Z"/>
    <path class="cls-3" d="M355.7,74.68c-4.35,1.44-8.47,3.39-12.78,4.09-6.19,1.02-11.2-1.92-13.02-6.59-1.92-4.96,0-11.72,4.5-15.25,4.44-3.49,9.77-4.66,15.2-5.43,3.03-.43,6.09-.61,9.1-1.12,1.02-.17,1.92-1.02,2.88-1.57-.7-1.23-1.22-3.35-2.14-3.54-3.4-.71-6.95-1.14-10.42-1-2.8.11-5.57,1.18-8.35,1.86-1.98.48-2.96.07-2.51-2.26,1.25-6.52,1.87-7.33,8.21-8.32,6.74-1.05,13.53-1.44,20.24.21,7.42,1.82,10.06,5.89,8.48,13.3-1.77,8.3-3.78,16.56-5.72,24.83-.6,2.58-2.28,3.89-4.95,3.88-1.44,0-2.88-.07-4.31.02-2.71.16-4.54-.65-4.43-3.12ZM359.13,58.1c-2.91.39-5.58.58-8.16,1.16-1.91.43-3.87,1.14-5.52,2.18-1.84,1.15-2.44,3.13-1.78,5.3.67,2.22,2.23,3.21,4.51,3.14,8.42-.24,10.73-3.36,10.95-11.79Z"/>
    <path class="cls-3" d="M395.1,22.77c.96,0,1.92-.04,2.87.01,2.54.14,3.49,1.3,2.96,3.72-3.41,15.58-6.82,31.15-10.28,46.71-.75,3.38-2.38,4.54-5.92,4.57-8.79.07-8.77.04-6.83-8.56,2.98-13.22,5.86-26.47,8.8-39.7,1.42-6.37,1.93-6.75,8.4-6.75Z"/>
  </g>
</svg>