<?xml version="1.0" encoding="UTF-8"?>
<svg id="Livello_2" data-name="Livello 2" xmlns="http://www.w3.org/2000/svg" viewBox="0 0 328.6 328.69">
  <defs>
    <style>
      .cls-1 {
        fill: #fff;
        stroke-width: 0px;
      }
    </style>
  </defs>
  <g id="Livello_1-2" data-name="Livello 1">
    <path class="cls-1" d="M175.2,328.69h-21.82c-4.01-.49-8.03-.89-12.03-1.49-38.54-5.81-71.3-22.77-97.79-51.38-21.79-23.52-35.56-51.17-41.03-82.83C1.51,187.13.83,181.22,0,175.34c0-7.27,0-14.54,0-21.82.21-1.02.45-2.04.62-3.07,1.4-8.62,2.17-17.39,4.26-25.84C25.08,43.2,104.24-10.25,187.03,1.66c38.69,5.56,71.71,22.58,98.03,51.51,34.66,38.1,48.63,83.19,41.9,134.15-5.1,38.62-22.63,71.31-51.23,97.8-23.53,21.79-51.17,35.56-82.83,41.05-5.87,1.02-11.79,1.7-17.69,2.53ZM147.53,99.58c-8.01,0-16.04-.31-24.03.06-18.38.85-36.53,3.37-54.19,8.75-8.07,2.46-12.49,9.39-10.72,16.76,1.94,8.08,9.07,12.31,17.68,10.64,11.81-2.3,23.56-5.08,35.47-6.63,26.35-3.43,52.69-2.13,78.85,2.23,22.54,3.75,44.16,10.42,64.23,21.63,2.09,1.17,4.54,2.04,6.91,2.34,6.46.8,12.58-3.34,14.66-9.52,2.12-6.3-.14-13.02-6.22-16.61-5.68-3.35-11.58-6.42-17.61-9.08-33.44-14.72-68.77-20.26-105.01-20.56ZM132.62,151.83c-6.31.61-18.48,1.37-30.5,3.1-8.5,1.23-16.9,3.49-25.18,5.84-6.39,1.82-9.51,8.35-7.68,14.48,1.78,5.97,7.84,9.62,14.08,7.93,17.92-4.84,36.13-7.76,54.67-7.62,30.2.24,59.4,5.57,86.81,18.86,4.51,2.19,8.82,4.77,13.31,6.99,5.91,2.93,12.44,1.09,15.67-4.24,3.76-6.19,1.41-13.2-5.91-17.41-33.86-19.52-70.65-27.53-115.26-27.94ZM236.18,234.19c-.03-3.9-1.6-6.32-5.83-8.84-16.47-9.82-34.11-16.73-53.04-19.73-11.98-1.9-24.14-3.17-36.25-3.66-8.91-.36-17.95.57-26.83,1.73-10.66,1.39-21.27,3.36-31.78,5.61-6.45,1.38-9.07,7.9-6.1,13.5,2.03,3.84,6.09,5.18,11.7,4.34,13.28-1.98,26.53-4.35,39.88-5.57,25.02-2.28,49.45,1.01,72.84,10.33,7.4,2.95,14.36,7,21.53,10.53,6.66,3.29,13.94-1.03,13.88-8.24Z"/>
  </g>
</svg>